PathFileType	4	(X/Y/Z)	pose2sim_0-719.trc
DataRate	CameraRate	NumFrames	NumMarkers	Units	OrigDataRate	OrigDataStartFrame	OrigNumFrames
50	50	8	22	m	50	0	720
Frame#	Time	Hip			RHip			RKnee			RAnkle			RBigToe			RSmallToe			RHeel			LHip			LKnee			LAnkle			LBigToe			LSmallToe			LHeel			Neck			Head			Nose			RShoulder			RElbow			RWrist			LShoulder			LElbow			LWrist			
		X1	Y1	Z1	X2	Y2	Z2	X3	Y3	Z3	X4	Y4	Z4	X5	Y5	Z5	X6	Y6	Z6	X7	Y7	Z7	X8	Y8	Z8	X9	Y9	Z9	X10	Y10	Z10	X11	Y11	Z11	X12	Y12	Z12	X13	Y13	Z13	X14	Y14	Z14	X15	Y15	Z15	X16	Y16	Z16	X17	Y17	Z17	X18	Y18	Z18	X19	Y19	Z19	X20	Y20	Z20	X21	Y21	Z21	X22	Y22	Z22	
0	0.0	0.13069948048156654	0.8037737850509893	-0.10105863059661577	0.036074890500927825	0.7920965538862978	-0.10440352911924139	0.008653035979362648	0.4267806926430118	-0.13582002196984594	-0.0010627244847606113	0.07313924974651605	-0.159102514966158	-0.02666880938415326	0.04164671662454882	0.017040876003231214	-0.06930421142912602	0.03763370458417158	-0.048610089073618246	0.009001290708024154	0.030376740432792503	-0.1903480259732199	0.22900294572200475	0.7946726610941695	-0.0999623217515198	0.2544657223590996	0.4305231957183088	-0.11973378712710207	0.2679272000607027	0.07627913386489421	-0.1460502626865086	0.2756258716493217	0.04123370210406856	0.01733873890493082	0.31351698060937083	0.03895470333438113	-0.027271285851097816	0.2548404249700475	0.031620601686465584	-0.17875183139618162	0.13041857138907945	1.3626917344935148	-0.06891773235543358	0.12579962545160156	1.5783613842523847	-0.0035869215596352703	0.11414618273542719	1.4524859796677299	0.05118920142869585	-0.03309582131233005	1.2630016942312083	-0.09942416872830309	-0.1343490168833109	1.0315827170132896	-0.1251384615461658	-0.23162781442571723	0.8231461970858759	-0.12233061047449958	0.2936755452281006	1.268520356040298	-0.10088992514636361	0.3887373229897723	1.0275592312910582	-0.1096910586946812	0.4805965885303334	0.8196444443062549	-0.09208308478395018
1	0.02	0.12889508529928492	0.7983452320149481	-0.10151933024782912	0.02863330514236557	0.7820348961547797	-0.10388166978359037	0.008837425938384408	0.4238554128286744	-0.13406377695073515	0.00041023028832023713	0.07034950701351507	-0.1534345278918648	-0.029297215308264863	0.03218503314824212	0.020641867745358856	-0.07030539198447523	0.029936334708804798	-0.04643790402853988	0.012153747000987248	0.033357278755115786	-0.18866340494590245	0.23036172512281256	0.7816451013498356	-0.09870165259747543	0.25567202607317324	0.4271918959579006	-0.122956951196346	0.265119503600214	0.07701634884135093	-0.14063023764322946	0.2820584388229762	0.03518162038582933	0.023338283845424232	0.32128187222748666	0.03563243670171521	-0.028675711501106305	0.26152339103554556	0.03871542035396786	-0.1754545419546943	0.13030796156710736	1.3588593512051481	-0.0678213864695389	0.12831967734593377	1.5717026765139075	-0.006276171409719466	0.12136862861982275	1.452774843728083	0.07793468192086196	-0.026880169705884954	1.2658112144808766	-0.09669700855720384	-0.13356716625171738	1.0317231325995604	-0.123903470405075	-0.22876734088180525	0.8242337360189812	-0.12097497732205915	0.28801596851535727	1.2699376134469909	-0.09963954402339593	0.38638565144319825	1.0317053173496595	-0.1161314181348701	0.48011620696584495	0.8186602316608124	-0.09499258643373848
2	0.04	0.1287809099375871	0.7960296066629988	-0.10383556304516328	0.028825732742058026	0.7810236905543749	-0.10511593581592045	0.009174187542215167	0.4241210023442374	-0.13231035643680225	0.0007131244708597889	0.07187841555213938	-0.15593885052025097	-0.027287357151402295	0.031101274658809967	0.026998179413971778	-0.06857178609120557	0.03031449883163918	-0.0415784170314339	0.01216287794237541	0.03402697904449159	-0.18961643482425466	0.23114388701478641	0.7814959626979959	-0.1007917039120331	0.2563896465322314	0.4274111519944589	-0.12320580194118697	0.2660894698004088	0.07581275177735781	-0.14122328835645132	0.2854319932795352	0.03348298302233672	0.0289580207410191	0.3259020661172515	0.0338800578793418	-0.02433981915360024	0.2594511033887277	0.03631544461778406	-0.17396639505636938	0.13305161803821183	1.3604246749123563	-0.07558415284616787	0.12982387372629292	1.5723101173760026	-0.006145605797379176	0.11969063219680467	1.451937002739355	0.08370380334488929	-0.023675208104623643	1.2672536007056232	-0.10448464635587867	-0.13259760726078254	1.0343315728294737	-0.1198644175353707	-0.22884451481090784	0.8267683348714457	-0.11979474436897772	0.28995217410436713	1.2669524861340713	-0.10198990389387537	0.38799921220096273	1.0283592377424184	-0.11127236265865602	0.48122859657036104	0.8185277293087156	-0.09431534548564306
3	0.06	0.12690457419479864	0.7959984460124245	-0.1000494075768638	0.027869964156230984	0.7822146659644853	-0.10229258241463556	0.008330213503605018	0.42383474637570145	-0.13586023598485597	-0.0004987176967154626	0.07100553988015114	-0.151913592337059	-0.027573186521057183	0.030192214021033992	0.029065027959274056	-0.06999537613421547	0.02947233284267686	-0.041001962363884197	0.012413172035895306	0.03195751922628101	-0.18919142023220525	0.22778463351565406	0.7815073091374406	-0.09988055521072592	0.2560027864648977	0.4281765266410834	-0.12089566814871029	0.2664045960280984	0.07494980237428296	-0.13910572583720482	0.28333772320422207	0.03271908277256073	0.024209189841031556	0.32387047012593984	0.03319528422180132	-0.029221261536627293	0.2602509865398755	0.03555508317294538	-0.17519290695954642	0.1325031987809361	1.3610529879331286	-0.0742985352329321	0.1292198929262351	1.5727223268052892	-0.004733482905248204	0.11768201321798741	1.4523860026711408	0.08884759360551042	-0.023235561532608237	1.266471836873524	-0.10623761501282528	-0.1320970878226594	1.0335642950919621	-0.12267393316594918	-0.2286143063018272	0.8267000857571295	-0.12083592998876393	0.28955019417968625	1.2673014573325214	-0.09980869744923129	0.3888645965353703	1.028568075648598	-0.11274483055286455	0.4820377996332992	0.8182260317641878	-0.09563604007923367
4	0.08	0.1308772645987702	0.8016077447284053	-0.0992618806074292	0.03502137650307637	0.7879493849735576	-0.09817070281653	0.0079620474594934	0.42575546918486673	-0.1318473840842233	0.00014352739792656446	0.07290596827447898	-0.15878651361044718	-0.025960143467224746	0.04037942116684768	0.018841982984164715	-0.06845140006014075	0.03728307769652804	-0.041618742845685015	0.009200050774068689	0.02990985958500804	-0.19162371068767017	0.22813069144472042	0.789443994133516	-0.09447520034239772	0.25628771929599903	0.4294288205046067	-0.11843316935121287	0.2656178902408408	0.07496096246226994	-0.14281550829425133	0.274221606844316	0.03842419582015635	0.019587961943200085	0.30954757625424434	0.03756042749102249	-0.025187738879211767	0.25574493274222004	0.031305141491122686	-0.17848240092274958	0.13129507286048153	1.3610772383786882	-0.06870396435025303	0.1255457055648498	1.5747094239216939	-0.0070832905055971725	0.1171168626805201	1.4515496304001385	0.054356800965380196	-0.031221160782961072	1.2612147042832402	-0.09774689398090093	-0.13377855931598479	1.0278011825820317	-0.12328725268416495	-0.2321517980268722	0.8202893145771146	-0.1237641110656618	0.2922495143335071	1.2678237126759657	-0.10141260034783423	0.3905895992829179	1.026949406957363	-0.1083807992713955	0.48046337031224645	0.8188035289938381	-0.09137471975067356
5	0.1	0.1288334343765634	0.7976661936794354	-0.103953461703419	0.029977500980903266	0.7827143130645964	-0.10768466432783894	0.008997457617121373	0.425383211821635	-0.13331496895825395	0.0001891505431909688	0.07250590073658435	-0.15261607649812403	-0.031538400369023445	0.03061570207870139	0.01962213155256847	-0.07311023854551367	0.030993425080834955	-0.04732416349610668	0.013495220719064472	0.03439214641832344	-0.1884800017113161	0.23123196376546926	0.7821949612296465	-0.10293128226861699	0.256409138039169	0.4248113224275046	-0.12105929938879208	0.26608802341506227	0.07537406577644101	-0.1367911054730775	0.2793457290374333	0.03319060828137243	0.02051985074132361	0.32015067383757434	0.03360985163461728	-0.02686389165407284	0.26005651918537714	0.03738832825684502	-0.17226448072810666	0.13038712987650497	1.360388225330915	-0.07461627796213757	0.12817279343940297	1.5716097876995174	-0.007378571966821345	0.11891439816757929	1.4531360849072144	0.08213115830026653	-0.023949743658325407	1.2660947498514794	-0.10311590766764883	-0.13055287401011773	1.0316057641331953	-0.12472354211259326	-0.2295465675319341	0.8245119176596718	-0.11918708765382516	0.28998731629700086	1.266881251015755	-0.10131813462440731	0.38832159968020225	1.0291043167696892	-0.11691281404500402	0.48176297973569027	0.8175465663835981	-0.09643026384223109
6	0.12	0.1292923054917801	0.796929793192778	-0.1034442909141882	0.029533668329159143	0.7833592693493103	-0.1060543616286615	0.00835304640932103	0.4240011658688662	-0.1331983211595022	0.002289479616117281	0.07035731359432279	-0.15395926278601274	-0.032040771630713304	0.03264366159307475	0.02035944884206606	-0.07275878464953633	0.030370498698885848	-0.04646480731919514	0.01275794734592062	0.03249458265846942	-0.18996065495583486	0.2302886520148363	0.7824113321646216	-0.10325936703857161	0.25558330325321255	0.42715139670838087	-0.11942940692094646	0.2663463888627838	0.07446060801929397	-0.13800686336916052	0.2809200772592591	0.031740818703596185	0.024209684002418373	0.3227407321918536	0.03214328449146428	-0.027062533645875107	0.2605780042188863	0.03790847377627886	-0.1746402258078023	0.13236897416096718	1.3605080891081662	-0.07275318183179133	0.13019586342814313	1.5708489798187024	-0.005762801949497722	0.12015626282358419	1.452546629903266	0.09008479460184551	-0.024426513035774068	1.2661287841857078	-0.10697932996301086	-0.1320924969118894	1.0319239182302393	-0.12063840404701878	-0.22829748260886587	0.8265894489198842	-0.11908100937579967	0.2879987262036704	1.2678211794044398	-0.1009540687583376	0.38861138347080776	1.0296111358117885	-0.1176047823314375	0.4818080627659063	0.8193409264669805	-0.09349998352685251
7	0.14	0.1298479677234473	0.7958918759218584	-0.10281897349392363	0.030084063193714546	0.7833414707534043	-0.10585709095424288	0.009101797699008367	0.42558690195727494	-0.1338482258850583	0.0002783860048626056	0.07084431023000215	-0.15321976384936994	-0.031749778021331734	0.030258707249267783	0.02329452369985986	-0.07151082008993766	0.02948940135166403	-0.04617668920009546	0.013003190053605554	0.035533846353197625	-0.18903351228527035	0.22965640310464547	0.783716740262587	-0.1022893520297881	0.25480094977443607	0.4276372357919026	-0.11964686828038139	0.26689270997574643	0.07360825095727815	-0.13938781406351697	0.2802776167069257	0.032434190509442656	0.02338652834635474	0.3230157140412653	0.034361642448109936	-0.028121127557429605	0.2608641346729707	0.035645612351970994	-0.17441365835678876	0.13296625073221516	1.3613460738274474	-0.0740610020141715	0.13078808198239805	1.5703264110873574	-0.00717321728262782	0.11956556753940774	1.4512454600930198	0.08584783548666382	-0.023644122218709568	1.2658743170833913	-0.10845137380434863	-0.13133908774172706	1.0329776066259462	-0.12079967123364989	-0.22772374083695804	0.8252623177602859	-0.11870099675873089	0.2898781880302763	1.2676606295692534	-0.0998371191720221	0.38900228133722914	1.029352237889221	-0.1191033846095638	0.48220627903894103	0.8180327540398221	-0.09595395871842974
